<?xml version="1.0" encoding="utf-8"?>
<!-- Generator: Adobe Illustrator 26.2.1, SVG Export Plug-In . SVG Version: 6.00 Build 0)  -->
<svg version="1.1" xmlns="http://www.w3.org/2000/svg" xmlns:xlink="http://www.w3.org/1999/xlink" x="0px" y="0px"
	 viewBox="0 0 595.28 841.89" style="enable-background:new 0 0 595.28 841.89;" xml:space="preserve">
<style type="text/css">
	.st0{display:none;}
	.st1{display:inline;}
	.st2{fill:none;stroke:#000000;stroke-width:3;stroke-miterlimit:10;}
	.st3{fill:none;stroke:#000000;stroke-width:7;stroke-miterlimit:10;}
	.st4{fill:none;stroke:#000000;stroke-width:4;stroke-miterlimit:10;}
	.st5{fill:#FFFFFF;}
</style>
<g id="Layer_1" class="st0">
	<g class="st1">
		<g>
			<path class="st2" d="M198.1,374.09c17.57,15.57,37.82,33.91,62.83,33.98c24.52,0.07,44.42-17.28,61.84-32.41
				c26.37,16.23,49.57,62.07,83.56,63.37c12.53,0.48,25.14-7.78,38.43-7.1c17.86,0.92,30.87,9.98,44.66,20.42
				c-53.42,8.8-90.73,54.41-128.34,89.66c-26.73,25.06-60.64,59.12-100.14,59.12c-41.84,0-77.7-37.71-105.67-64.34
				c-35.72-34.01-71.85-76.05-122.81-84.44c13.79-10.44,26.8-19.5,44.66-20.42c13.1-0.67,26.16,7.9,38.43,7.1
				C148.59,436.87,171.71,389.71,198.1,374.09z"/>
			<path class="st2" d="M77.03,431.94c37.08,30.05,65.98,67.71,98.85,102.01c21.78,22.73,50.88,53.24,85.05,53.24
				c32.04,0,59.19-27.08,80.11-48.21c35.08-35.42,64.86-75.51,103.79-107.04"/>
			<path class="st2" d="M107.05,436.77c27.4,31.45,51.98,65.43,80.43,95.96c18.66,20.02,43.91,45.82,73.45,45.82
				c27.56,0,51.05-22.65,68.92-41.12c30.52-31.54,56.15-67.6,84.96-100.66"/>
			<path class="st2" d="M128.43,434.53c22.56,27.77,43.93,56.93,69,82.53c16.44,16.78,38.33,37.5,63.49,37.51
				c23.23,0.01,43.24-17.73,58.92-32.93c27.07-26.25,49.44-57.26,73.16-86.45"/>
			<path class="st2" d="M144.5,423.23c26.21,31.43,68.57,98.43,116.43,97.94c47.99-0.5,89.15-64.98,115.6-96.62"/>
			<path class="st2" d="M157.1,410.91c25.14,28.65,60.65,79.07,103.83,79.13c42.81,0.06,77.79-49.11,102.79-77.47"/>
			<path class="st2" d="M167.25,399.89c23.77,25.64,54.95,65.19,93.68,65.26c38.09,0.07,69.14-38.42,92.54-63.45"/>
			<path class="st2" d="M175.61,390.96c22.39,22.93,50.26,54.84,85.32,54.92c34.54,0.08,61.89-30.52,84.16-53.08"/>
			<path class="st2" d="M182.6,384.15c21.21,20.73,46.3,47.22,78.32,47.31c31.47,0.09,56.16-25.24,77.18-45.51"/>
			<path class="st2" d="M188.55,379.27c19.98,18.79,43.01,41.53,72.38,41.6c28.82,0.07,51.48-21.53,71.29-39.86"/>
			<path class="st2" d="M193.66,376.02c18.5,16.84,40.39,37.54,67.27,37.41c26.49-0.13,47.62-19.12,66.22-35.75"/>
			<path class="st2" d="M311.57,385.37c17.04,18.31,27.07,39.96,41.22,60.35c5.87,8.45,15.85,24.68,27.09,25.8
				c7.43,0.74,19.74-6.33,26.76-8.11c15.63-3.95,26.41-2.57,41.22,3.61"/>
			<path class="st2" d="M300.37,393.79c11.03,19.38,18.45,39.52,26.38,60.26c4.65,12.15,12.51,43.16,26.68,48.68
				c17.33,6.75,33.46-13.77,52.9-3.56"/>
			<path class="st2" d="M289.14,400.58c10.18,28.68,15.66,58.26,22.88,87.76c3.04,12.42,5.24,37.27,15,45.8
				c11.25,9.83,25.87-7.05,37.77,4.39"/>
			<path class="st2" d="M277.88,405.41c5.64,28.23,8.66,56.74,12.17,85.3c2.19,17.87,0.83,50.62,10.54,66.67
				c6.05,10.01,19.03,6.35,22.66,17.46"/>
			<path class="st2" d="M266.59,407.95c3.48,53.64,0.72,108.7,7.56,162.01c1.29,10.05,7.13,17.93,7.55,27.88"/>
			<path class="st2" d="M255.26,407.93c-3.49,53.66-0.8,108.68-7.55,162.03c-1.3,10.28-6.87,17.73-7.55,27.88"/>
			<path class="st2" d="M243.89,405.26c-5.67,28.21-8.71,56.71-12.19,85.25c-2.18,17.87-0.74,50.8-10.42,66.86
				c-6.05,10.04-19.02,6.32-22.66,17.46"/>
			<path class="st2" d="M232.48,400.19c-10.3,28.63-15.78,58.19-22.92,87.71c-1.91,7.89-6.79,39.39-14.72,46.24
				c-11.36,9.82-25.83-7.09-37.77,4.39"/>
			<path class="st2" d="M221.04,393.07c-13,22.43-20.58,46.19-30.37,70.08c-4.67,11.41-9.76,34.39-22.3,39.49
				c-17.2,6.99-33.5-13.63-52.84-3.47"/>
			<path class="st2" d="M209.58,384.25c-17.35,18.16-27.34,39.68-41.22,60.36c-4.85,7.23-16.1,24.79-26.39,26.91
				c-7.68,1.59-19.03-6.26-26.76-8.11c-15.75-3.76-26.27-2.63-41.22,3.61"/>
		</g>
	</g>
</g>
<g id="Layer_2" class="st0">
	<g class="st1">
		<path class="st3" d="M297.64,602.59c-100.32,0-181.65-81.33-181.65-181.65S197.32,239.3,297.64,239.3"/>
		<path class="st3" d="M297.64,602.59c-66.88,0-121.1-81.33-121.1-181.65s54.22-181.65,121.1-181.65"/>
		<path class="st3" d="M297.64,602.59c-33.44,0-60.55-81.33-60.55-181.65S264.2,239.3,297.64,239.3"/>
		<path class="st3" d="M297.64,602.59c0,0,0-81.33,0-181.65s0-181.65,0-181.65"/>
		<path class="st3" d="M297.64,602.59c33.44,0,60.55-81.33,60.55-181.65S331.08,239.3,297.64,239.3"/>
		<path class="st3" d="M297.64,602.59c66.88,0,121.1-81.33,121.1-181.65S364.52,239.3,297.64,239.3"/>
		<path class="st3" d="M297.64,602.59c100.32,0,181.65-81.33,181.65-181.65S397.96,239.3,297.64,239.3"/>
	</g>
	<g class="st1">
		<g>
			<path class="st3" d="M156.38,306.73c16.97-2.86,34-5.21,51.1-7.05h0.01c15.37-1.66,30.79-2.9,46.22-3.74
				c14.63-0.79,29.28-1.21,43.93-1.26c14.61-0.06,29.23,0.26,43.83,0.95c15.33,0.71,30.64,1.83,45.92,3.36
				c16.89,1.68,33.74,3.87,50.52,6.55h0.01"/>
			<path class="st3" d="M123.86,367.9c19.64-2.07,39.32-3.8,59.03-5.18c19.22-1.35,38.47-2.36,57.73-3.04
				c19-0.69,38.01-1.04,57.02-1.07c19-0.04,38,0.25,56.99,0.85c19.24,0.61,38.46,1.56,57.66,2.83c19.66,1.3,39.31,2.95,58.91,4.94"
				/>
			<path class="st3" d="M116,423.1c20.19,0,40.38,0,60.56,0s40.36,0,60.54,0s40.36,0,60.54,0c20.18,0,40.36,0,60.54,0
				s40.36,0,60.54,0c20.19,0,40.37,0,60.55,0"/>
			<path class="st3" d="M125.28,478.45c19.51,2.04,39.06,3.74,58.64,5.1h0.01c19.06,1.32,38.13,2.32,57.23,3
				c18.82,0.66,37.65,1.01,56.48,1.04c18.82,0.04,37.64-0.24,56.45-0.83c19.07-0.6,38.13-1.53,57.16-2.78
				c19.54-1.28,39.05-2.9,58.52-4.86"/>
			<path class="st3" d="M160.6,540.17c16.52,2.7,33.11,4.92,49.74,6.65c14.91,1.56,29.84,2.73,44.8,3.51
				c14.16,0.75,28.33,1.14,42.5,1.19c14.13,0.05,28.26-0.24,42.39-0.88h0.01c14.84-0.66,29.66-1.71,44.46-3.15h0.01
				c16.43-1.58,32.83-3.63,49.15-6.16h0.01"/>
		</g>
	</g>
</g>
<g id="Layer_3">
	<g>
		<g>
			<path class="st4" d="M136.34,229.68c122.78,0,245.56,0.28,368.34,0c0.21,133.42-1.52,266.88-0.03,400.29
				c-122.79-0.04-245.55-0.32-368.34,0C134.41,496.56,136.14,363.11,136.34,229.68z"/>
			<path class="st4" d="M135.82,593.7c25.63,1.42,50.36-7.66,75.92-7.89c21.78-0.19,42.19,7.94,63.78,8.59
				c75.52,2.28,153.25,2.46,228.75-0.69"/>
			<path class="st4" d="M135.49,557.45c21.88,3.15,40.22-14.19,61.74-14.35c18.94-0.14,31.63,15.9,50.1,17.61
				c17.94,1.65,38.45-2.79,56.65-2.98c20.56-0.21,41.13,0.31,61.68,0.89c46.24,1.3,92.22,2.61,138.39-1.15"/>
			<path class="st4" d="M135.41,521.01c24.03,1.18,37.93-26.06,60.32-29.66c18.47-2.97,29.17,17.12,47.42,19
				c18.2,1.88,38.34-1.73,56.87-0.91c21.12,0.93,42.18,2.92,63.22,4.98c47,4.59,93.57,9.38,140.84,6.62"/>
			<path class="st4" d="M135.54,484.45c30.27-4.45,42.44-41.24,69.45-51.06c19.11-6.95,34.29,13.59,53.81,15.16
				c38.49,3.09,74.8,7.13,112.77,15.46c44,9.65,87.5,19.9,132.75,20.48"/>
			<path class="st4" d="M135.69,447.9c36.28-10.48,47.72-55.88,79.35-72.07c19.93-10.2,39.72,10.02,60.86,11.66
				c79.54,6.16,149.34,52.87,228.68,60.47"/>
			<path class="st4" d="M135.74,411.51c35.52-14.27,48.8-55.69,81.48-71.91c20.57-10.21,40.99,10.09,62.69,11.79
				c78.25,6.13,146.68,52.66,224.73,60.17"/>
			<path class="st4" d="M135.84,375.12c34.19-11.05,51.87-46,84.13-58.89c21.91-8.75,43.92,7.02,66.44,8.42
				c75.18,4.68,143.25,43.84,218.22,50.51"/>
			<path class="st4" d="M135.98,338.79c33.37-7.05,56.44-34.37,88.76-42.94c24.23-6.42,47.53,6.36,71.89,7.58
				c70.74,3.52,137.34,31.52,208.03,35.4"/>
			<path class="st4" d="M136.13,302.47c32.96-3.47,61.25-21.88,93.81-26.35c26.45-3.63,51.39,6.29,77.71,7.27
				c66.1,2.46,130.91,18.27,197.04,19.1"/>
			<path class="st4" d="M136.26,266.12c32.98-0.98,64.85-9.98,97.75-11.42c27.79-1.22,54.87,4.79,82.56,5.55
				c62.56,1.72,125.55,6.82,188.13,5.88"/>
			<path class="st4" d="M471.22,229.73c0.63,64.62-2.92,129.4-4.11,194.01c-0.64,34.41-7.21,68.41-8.69,102.78
				c-1.52,35.37,4.78,69,12.32,103.42"/>
			<path class="st4" d="M437.72,229.71c-0.39,60.48-10.9,120.33-13,180.77c-1.33,38.11-12.49,75.15-14.57,113.19
				c-2.13,39.13,11.18,70.93,26.64,106.15"/>
			<path class="st4" d="M404.2,229.65c-1.91,55.9-20.84,108.84-23.89,164.71c-2.25,41.18-15.98,80.73-19.42,121.77
				c-3.87,46.26,17.95,76.47,41.92,113.55"/>
			<path class="st4" d="M370.69,229.61c-3.08,52.22-30.62,97.22-34.04,149.48c-3.03,46.27-21.66,90.15-25.01,136.38
				c-3.64,50.28,27.31,78.38,57.2,114.08"/>
			<path class="st4" d="M337.21,229.62c-3.17,50.57-36.21,89.37-40.57,139.97c-4.15,48.2-25.72,93.28-31.43,141.29
				c-6.86,57.71,32.6,82.3,69.7,118.6"/>
			<path class="st4" d="M303.7,229.58c-1.25,49.58-39.45,85.94-43.36,135.54c-3.77,47.79-23.75,92.77-29.92,140.24
				c-7.8,60.07,32.65,86.27,70.98,124.07"/>
			<path class="st4" d="M270.26,229.34c-0.05,43.62-28.55,79.64-31.23,123.32c-3.08,50.32-22.51,98.24-26.31,148.48
				c-4.08,53.86,25.68,87.32,55.69,128.14"/>
			<path class="st4" d="M236.83,229.24c1.26,41.84-17,81.28-18.46,123.16c-1.66,47.57-17.63,93.66-21.93,140.99
				c-4.75,52.22,15.65,90.94,39,135.89"/>
			<path class="st4" d="M203.37,229.36c2,48.72-7.46,97.86-8.7,146.62c-1.11,43.37-13.79,85.74-16.56,129
				c-2.85,44.48,9.57,83.05,24.33,124.5"/>
			<path class="st4" d="M169.84,229.6c0.07,60.25-4.81,120.41-5.83,180.65c-0.62,36.45-6.71,72.54-7.89,108.96
				c-1.23,37.75,5.4,73.81,13.24,110.6"/>
		</g>
	</g>
	<path class="st5" d="M232.49,379.58"/>
</g>
</svg>
